Coordinates
version=1
nRows=29
nColumns=24
inDegrees=yes

Units are S.I. units (second, meters, Newtons, ...)
Angles are in degrees.

endheader
time	pelvis_tilt	pelvis_list	pelvis_rotation	pelvis_tx	pelvis_ty	pelvis_tz	hip_flexion_r	hip_adduction_r	hip_rotation_r	knee_angle_r	ankle_angle_r	subtalar_angle_r	mtp_angle_r	hip_flexion_l	hip_adduction_l	hip_rotation_l	knee_angle_l	ankle_angle_l	subtalar_angle_l	mtp_angle_l	lumbar_extension	lumbar_bending	lumbar_rotation
      3.88500000	     -7.57703583	    -17.25547590	     11.81513571	     -0.92235331	     -0.05948784	      0.46057357	     31.35287081	     18.62674287	     -4.25623926	    -29.49027814	      3.49620016	      0.08997327	      6.26320717	     19.10999565	    -18.61629567	      8.53574967	    -67.64800007	    -28.80542876	     17.26258872	     30.64616509	     10.62300439	     16.89074471	    -13.92207255
      3.89000000	     -7.61790095	    -17.34846348	     11.85419512	     -0.91521555	     -0.05828199	      0.46083090	     30.64944429	     18.93528961	     -3.98186493	    -28.98380813	      3.67127225	     -0.20874207	      5.81083801	     20.30351970	    -18.39516046	      8.98411508	    -68.48091134	    -27.79765978	     16.54322033	     30.68778759	     10.69070067	     16.90555128	    -13.71917130
      3.89500000	     -7.64811805	    -17.37455754	     11.85430843	     -0.90796342	     -0.05699702	      0.46108434	     29.88074215	     19.20590458	     -3.58207124	    -28.46683891	      3.91355689	     -0.39820736	      5.35649098	     21.40346459	    -18.11077645	      9.35862374	    -69.18991064	    -26.75311907	     15.99840430	     30.80311946	     10.74307331	     16.86119473	    -13.51133604
      3.90000000	     -7.67987061	    -17.36877460	     11.86357157	     -0.90069507	     -0.05568068	      0.46130325	     29.09171703	     19.43854599	     -3.16495213	    -27.93156095	      4.13358124	     -0.61117942	      4.89753537	     22.48074500	    -17.77390474	      9.71928258	    -69.80211059	    -25.78309655	     15.47501875	     30.95416193	     10.79582018	     16.77857265	    -13.31542998
      3.90500000	     -7.72919765	    -17.34136313	     11.85928003	     -0.89342247	     -0.05437177	      0.46152276	     28.30196435	     19.65105404	     -2.70356073	    -27.38244229	      4.32047333	     -0.85545853	      4.42140496	     23.55059294	    -17.40558761	     10.04583836	    -70.33028889	    -24.84832185	     15.00396159	     31.11335499	     10.86308181	     16.67161704	    -13.10532557
      3.91000000	     -7.79080067	    -17.29264187	     11.83708159	     -0.88617169	     -0.05307668	      0.46174010	     27.50775822	     19.84415177	     -2.20239559	    -26.82074107	      4.48133248	     -1.12565331	      3.92238397	     24.60632870	    -17.00755390	     10.33502431	    -70.77914984	    -23.95277640	     14.57058198	     31.26283438	     10.93193270	     16.54624689	    -12.88217622
      3.91500000	     -7.86395707	    -17.22182923	     11.79013726	     -0.87895950	     -0.05180600	      0.46196451	     26.71149555	     20.01871690	     -1.65665095	    -26.25396816	      4.61901306	     -1.41678726	      3.39846188	     25.64470136	    -16.58446678	     10.57799403	    -71.15084035	    -23.09127462	     14.16685477	     31.40264511	     10.99697717	     16.40444688	    -12.62962784
      3.92000000	     -7.94497014	    -17.13177481	     11.71264489	     -0.87180896	     -0.05056650	      0.46218867	     25.91177071	     20.17677561	     -1.06991125	    -25.68311253	      4.73690704	     -1.71572701	      2.85100241	     26.66212225	    -16.14333202	     10.76986826	    -71.44888075	    -22.26741304	     13.78415159	     31.53139186	     11.04542738	     16.25324258	    -12.34213604
      3.92500000	     -8.03493481	    -17.01688163	     11.60517036	     -0.86471033	     -0.04936151	      0.46242624	     25.10866725	     20.31008670	     -0.45256806	    -25.10991250	      4.84223012	     -2.01040624	      2.32351036	     27.65447442	    -15.68171448	     10.90846242	    -71.66755794	    -21.48326964	     13.40818708	     31.65796254	     11.08657437	     16.08685884	    -12.02812266
      3.93000000	     -8.12718367	    -16.89625419	     11.46049259	     -0.85772571	     -0.04820937	      0.46267603	     24.30729479	     20.44246992	      0.21347630	    -24.54171230	      4.92664970	     -2.31684989	      1.75324987	     28.62917311	    -15.22324503	     11.00012766	    -71.82326943	    -20.73021015	     13.04404645	     31.76207648	     11.09579087	     15.93152983	    -11.66305367
      3.93500000	     -8.24074873	    -16.74123968	     11.27691143	     -0.85072576	     -0.04710261	      0.46296538	     23.50847732	     20.53614569	      0.87486329	    -23.96709272	      5.01590537	     -2.61527704	      1.24438612	     29.57408471	    -14.74451044	     11.02623549	    -71.88736464	    -20.01017115	     12.67834798	     31.86509612	     11.11830006	     15.74154962	    -11.27908702
      3.94000000	     -8.35586730	    -16.58196844	     11.06649390	     -0.84382204	     -0.04605450	      0.46322837	     22.71184343	     20.61882145	      1.56663381	    -23.39614800	      5.08298441	     -2.90200118	      0.74685257	     30.50554815	    -14.27682991	     11.00175462	    -71.88751335	    -19.32391981	     12.31724758	     31.94957153	     11.12533857	     15.57026869	    -10.86530141
      3.94500000	     -8.47704045	    -16.41846140	     10.81730550	     -0.83699711	     -0.04507899	      0.46354700	     21.92440561	     20.69977192	      2.27991821	    -22.83497425	      5.14634069	     -3.19716886	      0.23525412	     31.41883069	    -13.82458945	     10.93685730	    -71.81993925	    -18.66149331	     11.95843612	     32.00458337	     11.11041740	     15.40198631	    -10.40011775
      3.95000000	     -8.61749320	    -16.24179203	     10.53724738	     -0.83018608	     -0.04414100	      0.46382193	     21.14588035	     20.74872299	      2.98555584	    -22.26734735	      5.19130119	     -3.43175005	     -0.23020202	     32.31414535	    -13.36776767	     10.83261399	    -71.66792913	    -18.03170788	     11.60982194	     32.04147573	     11.10929888	     15.23761352	     -9.94254952
      3.95500000	     -8.74956184	    -16.07314812	     10.23204922	     -0.82349934	     -0.04332555	      0.46419257	     20.38370030	     20.81296110	      3.69822633	    -21.73351877	      5.25241645	     -3.71231140	     -0.72852796	     33.20112695	    -12.95310425	     10.69166893	    -71.46782201	    -17.41417116	     11.25140111	     32.03828420	     11.06927025	     15.08394855	     -9.39625467
      3.96000000	     -8.86278492	    -15.93883510	      9.93258848	     -0.81679146	     -0.04254119	      0.46450403	     19.58931351	     20.90003729	      4.42599216	    -21.16681264	      5.30490160	     -3.96964980	     -1.35730863	     34.06363571	    -12.58511237	     10.55646324	    -71.20279143	    -16.82555632	     10.92480691	     31.95575773	     11.02926996	     14.98085740	     -8.89062883
      3.96500000	     -9.05341621	    -15.73290794	      9.57882127	     -0.81013277	     -0.04186118	      0.46484122	     18.89677680	     20.87490329	      5.02551249	    -20.66026238	      5.39719261	     -4.06116514	     -1.63580341	     34.94205317	    -12.15927063	     10.34773022	    -70.83642464	    -16.27754103	     10.61339390	     31.95705632	     11.04132061	     14.79919744	     -8.36303197
      3.97000000	     -9.22428090	    -15.56331801	      9.19686611	     -0.80351221	     -0.04125737	      0.46520856	     18.18076413	     20.89735998	      5.70146259	    -20.14100241	      5.45416082	     -4.22354930	     -1.98413864	     35.80073461	    -11.81622623	     10.10440233	    -70.42056035	    -15.77002720	     10.28291006	     31.87335446	     11.02641770	     14.67756050	     -7.78244046
      3.97500000	     -9.38227213	    -15.40723806	      8.81193370	     -0.79695368	     -0.04074841	      0.46561603	     17.46991712	     20.92981895	      6.35331979	    -19.63927617	      5.52060303	     -4.41425505	     -2.37253860	     36.64417490	    -11.51048601	      9.85952490	    -69.95463698	    -15.27272679	      9.97839616	     31.72857376	     10.98817010	     14.56690177	     -7.17142055
      3.98000000	     -9.55417988	    -15.25485922	      8.41761601	     -0.79040423	     -0.04030148	      0.46598645	     16.78231248	     20.94314394	      6.96688496	    -19.14843579	      5.59009639	     -4.51489130	     -2.69689866	     37.48127861	    -11.22633900	      9.60216932	    -69.41520743	    -14.80859055	      9.70962797	     31.57172587	     10.96712548	     14.47035226	     -6.58760114
      3.98500000	     -9.73169877	    -15.10792782	      8.00730049	     -0.78388979	     -0.03993103	      0.46636600	     16.11574689	     20.95009900	      7.55466577	    -18.67859131	      5.66078634	     -4.57665619	     -2.97014741	     38.30820173	    -10.97681376	      9.32511742	    -68.81166372	    -14.37832376	      9.45843589	     31.39401127	     10.94575373	     14.38596444	     -5.99050803
      3.99000000	     -9.91785747	    -14.96824177	      7.58239336	     -0.77739518	     -0.03962324	      0.46673657	     15.46894423	     20.94884799	      8.12606263	    -18.22282059	      5.72734516	     -4.56416215	     -3.16063873	     39.12689564	    -10.76186585	      9.03578311	    -68.14098131	    -14.00002857	      9.24418814	     31.22109536	     10.93221828	     14.31655990	     -5.41812140
      3.99500000	    -10.09195661	    -14.85044834	      7.16104238	     -0.77097024	     -0.03943480	      0.46707877	     14.83330947	     20.96059898	      8.67085624	    -17.78994320	      5.83075790	     -4.56465259	     -3.30985671	     39.93566084	    -10.58622709	      8.75378693	    -67.42825613	    -13.64778200	      9.04065493	     31.02921134	     10.89690921	     14.28567770	     -4.80857664
      4.00000000	    -10.27043875	    -14.72207640	      6.70153859	     -0.76455361	     -0.03925936	      0.46751134	     14.21353081	     20.96493754	      9.21888092	    -17.39085074	      5.86508439	     -4.55987402	     -3.48818786	     40.71180589	    -10.46104916	      8.41243253	    -66.63870008	    -13.30441157	      8.86276138	     30.77669028	     10.85062443	     14.23444107	     -4.15292472
      4.00500000	    -10.43484956	    -14.62419555	      6.26329835	     -0.75817053	     -0.03919692	      0.46786479	     13.59607499	     20.98400371	      9.74344584	    -17.00115507	      5.95459328	     -4.53867432	     -3.61247412	     41.47601239	    -10.36323146	      8.11562468	    -65.80818311	    -12.98763933	      8.72661610	     30.53380463	     10.79461959	     14.22943356	     -3.53072632
      4.01000000	    -10.59619697	    -14.53361043	      5.82178514	     -0.75181748	     -0.03919340	      0.46822763	     12.99361781	     21.00235481	     10.25096738	    -16.63804210	      6.03152718	     -4.49080238	     -3.71208565	     42.22149869	    -10.30536813	      7.80000502	    -64.91780528	    -12.69106541	      8.62661493	     30.28960796	     10.72825564	     14.23058499	     -2.88797395
      4.01500000	    -10.75678416	    -14.43358046	      5.34433060	     -0.74547043	     -0.03919548	      0.46859524	     12.39798337	     21.00871565	     10.76577870	    -16.30396035	      6.06785268	     -4.44000925	     -3.82578301	     42.92565000	    -10.28833667	      7.43683131	    -63.95533281	    -12.40818766	      8.58000741	     30.00136720	     10.64885175	     14.24542305	     -2.23559122
      4.02000000	    -10.90331288	    -14.35518265	      4.88330716	     -0.73913751	     -0.03928564	      0.46894662	     11.80191649	     21.02877000	     11.27454271	    -15.98449377	      6.12738254	     -4.38679118	     -3.91961638	     43.60722271	    -10.30266673	      7.09672155	    -62.94784596	    -12.12073872	      8.57973865	     29.71366868	     10.55457234	     14.27197807	     -1.58618601
      4.02500000	    -11.04201185	    -14.29277176	      4.43146712	     -0.73282611	     -0.03944223	      0.46925438	     11.21439054	     21.05353652	     11.76605556	    -15.68651016	      6.19805990	     -4.30705530	     -3.98300052	     44.26461739	    -10.34273366	      6.77088471	    -61.88565293	    -11.84670872	      8.63414511	     29.45153867	     10.44874721	     14.32186447	     -0.94217802
